<svg width="324" height="34" viewBox="0 0 324 34" fill="none" xmlns="http://www.w3.org/2000/svg">
<path d="M0.464 16L2.704 4.8H5.312L3.072 16H0.464ZM9.218 19.232C8.386 19.232 7.618 19.136 6.914 18.944C6.22067 18.752 5.62333 18.4693 5.122 18.096L6.306 16.288C6.64733 16.5653 7.08467 16.7893 7.618 16.96C8.162 17.1307 8.73267 17.216 9.33 17.216C10.194 17.216 10.8393 17.0293 11.266 16.656C11.7033 16.2827 11.9967 15.728 12.146 14.992L12.45 13.44L13.026 11.424L13.41 9.248L13.762 7.392H16.146L14.722 14.56C14.3913 16.2133 13.762 17.4027 12.834 18.128C11.9167 18.864 10.7113 19.232 9.218 19.232ZM9.586 15.584C8.882 15.584 8.242 15.44 7.666 15.152C7.09 14.864 6.63133 14.4533 6.29 13.92C5.94867 13.376 5.778 12.7253 5.778 11.968C5.778 11.3067 5.89533 10.6933 6.13 10.128C6.37533 9.56267 6.71133 9.06667 7.138 8.64C7.57533 8.20267 8.082 7.86667 8.658 7.632C9.24467 7.38667 9.88467 7.264 10.578 7.264C11.2073 7.264 11.778 7.38133 12.29 7.616C12.802 7.85067 13.1967 8.22933 13.474 8.752C13.762 9.27467 13.8687 9.97333 13.794 10.848C13.73 11.7973 13.522 12.6293 13.17 13.344C12.818 14.048 12.338 14.5973 11.73 14.992C11.1327 15.3867 10.418 15.584 9.586 15.584ZM10.258 13.536C10.7487 13.536 11.1807 13.4293 11.554 13.216C11.9273 13.0027 12.2207 12.7093 12.434 12.336C12.6473 11.952 12.754 11.5147 12.754 11.024C12.754 10.5013 12.5833 10.0907 12.242 9.792C11.9007 9.48267 11.426 9.328 10.818 9.328C10.3273 9.328 9.89 9.43467 9.506 9.648C9.13267 9.86133 8.834 10.16 8.61 10.544C8.39667 10.9173 8.29 11.3493 8.29 11.84C8.29 12.3627 8.466 12.7787 8.818 13.088C9.17 13.3867 9.65 13.536 10.258 13.536ZM23.4771 7.264C24.2131 7.264 24.8371 7.41867 25.3491 7.728C25.8611 8.02667 26.2238 8.46933 26.4371 9.056C26.6505 9.64267 26.6718 10.368 26.5011 11.232L25.5411 16H23.0451L23.9731 11.392C24.1011 10.7627 24.0478 10.2773 23.8131 9.936C23.5891 9.59467 23.1731 9.424 22.5651 9.424C21.9358 9.424 21.4078 9.60533 20.9811 9.968C20.5651 10.3307 20.2771 10.8853 20.1171 11.632L19.2531 16H16.7571L18.4691 7.392H20.8371L20.3411 9.824L19.9891 9.088C20.4051 8.45867 20.9171 8 21.5251 7.712C22.1438 7.41333 22.7945 7.264 23.4771 7.264ZM27.8196 16L29.5316 7.392H32.0116L30.2996 16H27.8196ZM31.1956 6.192C30.7583 6.192 30.4063 6.06933 30.1396 5.824C29.873 5.568 29.7396 5.25867 29.7396 4.896C29.7396 4.46933 29.889 4.11733 30.1876 3.84C30.497 3.552 30.897 3.408 31.3876 3.408C31.825 3.408 32.177 3.53067 32.4436 3.776C32.721 4.01067 32.8596 4.304 32.8596 4.656C32.8596 5.11467 32.705 5.488 32.3956 5.776C32.097 6.05333 31.697 6.192 31.1956 6.192ZM36.1205 16.128C35.5018 16.128 34.9738 16.0053 34.5365 15.76C34.0992 15.504 33.7845 15.1413 33.5925 14.672C33.4112 14.192 33.3845 13.6267 33.5125 12.976L35.0005 5.488H37.4965L36.0085 12.96C35.9445 13.3227 35.9818 13.6107 36.1205 13.824C36.2592 14.0373 36.5152 14.144 36.8885 14.144C37.0592 14.144 37.2298 14.1173 37.4005 14.064C37.5818 14.0107 37.7472 13.936 37.8965 13.84L38.2645 15.616C37.9552 15.808 37.6138 15.9413 37.2405 16.016C36.8672 16.0907 36.4938 16.128 36.1205 16.128ZM32.8725 9.504L33.2565 7.584H39.2245L38.8405 9.504H32.8725ZM39.5696 16L41.2816 7.392H43.7616L42.0496 16H39.5696ZM42.9456 6.192C42.5083 6.192 42.1563 6.06933 41.8896 5.824C41.623 5.568 41.4896 5.25867 41.4896 4.896C41.4896 4.46933 41.639 4.11733 41.9376 3.84C42.247 3.552 42.647 3.408 43.1376 3.408C43.575 3.408 43.927 3.53067 44.1936 3.776C44.471 4.01067 44.6096 4.304 44.6096 4.656C44.6096 5.11467 44.455 5.488 44.1456 5.776C43.847 6.05333 43.447 6.192 42.9456 6.192ZM51.0865 7.264C51.8225 7.264 52.4465 7.41867 52.9585 7.728C53.4705 8.02667 53.8332 8.46933 54.0465 9.056C54.2598 9.64267 54.2812 10.368 54.1105 11.232L53.1505 16H50.6545L51.5825 11.392C51.7105 10.7627 51.6572 10.2773 51.4225 9.936C51.1985 9.59467 50.7825 9.424 50.1745 9.424C49.5452 9.424 49.0172 9.60533 48.5905 9.968C48.1745 10.3307 47.8865 10.8853 47.7265 11.632L46.8625 16H44.3665L46.0785 7.392H48.4465L47.9505 9.824L47.5985 9.088C48.0145 8.45867 48.5265 8 49.1345 7.712C49.7532 7.41333 50.4038 7.264 51.0865 7.264ZM59.1243 19.232C58.2923 19.232 57.5243 19.136 56.8203 18.944C56.1269 18.752 55.5296 18.4693 55.0282 18.096L56.2122 16.288C56.5536 16.5653 56.9909 16.7893 57.5243 16.96C58.0683 17.1307 58.6389 17.216 59.2363 17.216C60.1003 17.216 60.7456 17.0293 61.1723 16.656C61.6096 16.2827 61.9029 15.728 62.0523 14.992L62.3563 13.44L62.9323 11.424L63.3163 9.248L63.6683 7.392H66.0523L64.6283 14.56C64.2976 16.2133 63.6683 17.4027 62.7403 18.128C61.8229 18.864 60.6176 19.232 59.1243 19.232ZM59.4923 15.584C58.7883 15.584 58.1483 15.44 57.5723 15.152C56.9963 14.864 56.5376 14.4533 56.1963 13.92C55.8549 13.376 55.6842 12.7253 55.6842 11.968C55.6842 11.3067 55.8016 10.6933 56.0363 10.128C56.2816 9.56267 56.6176 9.06667 57.0443 8.64C57.4816 8.20267 57.9883 7.86667 58.5643 7.632C59.1509 7.38667 59.7909 7.264 60.4843 7.264C61.1136 7.264 61.6843 7.38133 62.1963 7.616C62.7083 7.85067 63.1029 8.22933 63.3802 8.752C63.6683 9.27467 63.7749 9.97333 63.7003 10.848C63.6363 11.7973 63.4283 12.6293 63.0763 13.344C62.7243 14.048 62.2443 14.5973 61.6363 14.992C61.0389 15.3867 60.3243 15.584 59.4923 15.584ZM60.1643 13.536C60.6549 13.536 61.0869 13.4293 61.4603 13.216C61.8336 13.0027 62.1269 12.7093 62.3403 12.336C62.5536 11.952 62.6603 11.5147 62.6603 11.024C62.6603 10.5013 62.4896 10.0907 62.1483 9.792C61.8069 9.48267 61.3323 9.328 60.7243 9.328C60.2336 9.328 59.7963 9.43467 59.4123 9.648C59.0389 9.86133 58.7403 10.16 58.5163 10.544C58.3029 10.9173 58.1963 11.3493 58.1963 11.84C58.1963 12.3627 58.3723 12.7787 58.7243 13.088C59.0763 13.3867 59.5563 13.536 60.1643 13.536ZM75.0826 16.128C74.4213 16.128 73.808 15.9787 73.2426 15.68C72.6773 15.3707 72.224 14.928 71.8826 14.352C71.5413 13.776 71.3706 13.0827 71.3706 12.272C71.3706 11.5467 71.488 10.88 71.7226 10.272C71.968 9.664 72.3093 9.136 72.7466 8.688C73.184 8.24 73.6906 7.89333 74.2666 7.648C74.8426 7.392 75.4613 7.264 76.1226 7.264C76.8373 7.264 77.4506 7.39733 77.9626 7.664C78.4746 7.93067 78.8533 8.34667 79.0986 8.912C79.3546 9.46667 79.4453 10.1867 79.3706 11.072C79.3173 12.0853 79.1093 12.976 78.7466 13.744C78.384 14.5013 77.8933 15.088 77.2746 15.504C76.6666 15.92 75.936 16.128 75.0826 16.128ZM75.8506 14.064C76.3413 14.064 76.7733 13.9467 77.1466 13.712C77.5306 13.4667 77.8293 13.136 78.0426 12.72C78.2666 12.2933 78.3786 11.7973 78.3786 11.232C78.3786 10.6453 78.2026 10.1813 77.8506 9.84C77.5093 9.49867 77.0293 9.328 76.4106 9.328C75.9306 9.328 75.4986 9.45067 75.1146 9.696C74.7306 9.93067 74.4266 10.2613 74.2026 10.688C73.9893 11.104 73.8826 11.5947 73.8826 12.16C73.8826 12.7467 74.0533 13.2107 74.3946 13.552C74.7466 13.8933 75.232 14.064 75.8506 14.064ZM77.5626 16L77.8986 14.288L78.4586 11.728L78.7946 9.168L79.1466 7.392H81.6426L79.9306 16H77.5626ZM86.9328 16L89.1728 4.8H93.7328C95.1301 4.8 96.2074 5.104 96.9648 5.712C97.7328 6.32 98.1168 7.17333 98.1168 8.272C98.1168 9.21067 97.8928 10.0267 97.4448 10.72C97.0074 11.4027 96.3781 11.9307 95.5568 12.304C94.7461 12.6773 93.7861 12.864 92.6768 12.864H89.0288L90.3888 11.728L89.5408 16H86.9328ZM94.1328 16L91.8448 11.936H94.5648L96.8688 16H94.1328ZM90.3248 12.032L89.4288 10.8H92.7728C93.6368 10.8 94.3034 10.608 94.7728 10.224C95.2528 9.82933 95.4928 9.25867 95.4928 8.512C95.4928 7.968 95.3061 7.568 94.9328 7.312C94.5701 7.04533 94.0581 6.912 93.3968 6.912H90.2448L91.6048 5.648L90.3248 12.032ZM103.114 16.128C102.218 16.128 101.44 15.968 100.778 15.648C100.128 15.328 99.621 14.88 99.2584 14.304C98.8957 13.728 98.7144 13.0507 98.7144 12.272C98.7144 11.312 98.9277 10.4587 99.3544 9.712C99.7917 8.95467 100.389 8.35733 101.146 7.92C101.914 7.48267 102.794 7.264 103.786 7.264C104.629 7.264 105.354 7.424 105.962 7.744C106.57 8.05333 107.04 8.49067 107.37 9.056C107.712 9.61067 107.882 10.2773 107.882 11.056C107.882 11.28 107.866 11.504 107.834 11.728C107.813 11.952 107.781 12.1653 107.738 12.368H100.618L100.874 10.912H106.57L105.546 11.36C105.632 10.88 105.605 10.48 105.466 10.16C105.328 9.82933 105.104 9.57867 104.794 9.408C104.485 9.22667 104.112 9.136 103.674 9.136C103.13 9.136 102.666 9.26933 102.282 9.536C101.909 9.792 101.626 10.1493 101.434 10.608C101.242 11.0667 101.146 11.584 101.146 12.16C101.146 12.8213 101.328 13.3173 101.69 13.648C102.064 13.968 102.624 14.128 103.37 14.128C103.808 14.128 104.229 14.0587 104.634 13.92C105.04 13.7813 105.386 13.584 105.674 13.328L106.714 14.976C106.213 15.3707 105.648 15.664 105.018 15.856C104.4 16.0373 103.765 16.128 103.114 16.128ZM110.765 16L108.861 7.392H111.325L112.909 14.8H111.629L116.189 7.392H118.685L113.341 16H110.765ZM122.253 16.128C121.378 16.128 120.616 15.968 119.965 15.648C119.314 15.328 118.808 14.88 118.445 14.304C118.093 13.728 117.917 13.0507 117.917 12.272C117.917 11.312 118.141 10.4587 118.589 9.712C119.037 8.95467 119.65 8.35733 120.429 7.92C121.218 7.48267 122.114 7.264 123.117 7.264C124.002 7.264 124.765 7.424 125.405 7.744C126.056 8.064 126.557 8.512 126.909 9.088C127.272 9.65333 127.453 10.3307 127.453 11.12C127.453 12.0693 127.229 12.9227 126.781 13.68C126.333 14.4373 125.72 15.0347 124.941 15.472C124.162 15.9093 123.266 16.128 122.253 16.128ZM122.413 14.08C122.904 14.08 123.336 13.9627 123.709 13.728C124.093 13.4827 124.392 13.1467 124.605 12.72C124.818 12.2933 124.925 11.7973 124.925 11.232C124.925 10.656 124.754 10.192 124.413 9.84C124.072 9.488 123.592 9.312 122.973 9.312C122.482 9.312 122.045 9.43467 121.661 9.68C121.288 9.91467 120.989 10.2453 120.765 10.672C120.552 11.0987 120.445 11.5947 120.445 12.16C120.445 12.7467 120.616 13.216 120.957 13.568C121.298 13.9093 121.784 14.08 122.413 14.08ZM128.226 16L130.594 4.128H133.09L130.722 16H128.226ZM136.718 16.128C136.014 16.128 135.406 15.9787 134.894 15.68C134.382 15.3707 134.02 14.9227 133.806 14.336C133.593 13.7493 133.572 13.024 133.742 12.16L134.686 7.392H137.182L136.27 12C136.142 12.6293 136.19 13.1147 136.414 13.456C136.649 13.7973 137.06 13.968 137.646 13.968C138.265 13.968 138.782 13.7867 139.198 13.424C139.625 13.0613 139.908 12.5067 140.046 11.76L140.926 7.392H143.422L141.71 16H139.342L139.822 13.568L140.174 14.304C139.769 14.9333 139.262 15.3973 138.654 15.696C138.046 15.984 137.401 16.128 136.718 16.128ZM147.527 16.128C146.908 16.128 146.38 16.0053 145.943 15.76C145.505 15.504 145.191 15.1413 144.999 14.672C144.817 14.192 144.791 13.6267 144.919 12.976L146.407 5.488H148.903L147.415 12.96C147.351 13.3227 147.388 13.6107 147.527 13.824C147.665 14.0373 147.921 14.144 148.295 14.144C148.465 14.144 148.636 14.1173 148.807 14.064C148.988 14.0107 149.153 13.936 149.303 13.84L149.671 15.616C149.361 15.808 149.02 15.9413 148.647 16.016C148.273 16.0907 147.9 16.128 147.527 16.128ZM144.279 9.504L144.663 7.584H150.631L150.247 9.504H144.279ZM150.976 16L152.688 7.392H155.168L153.456 16H150.976ZM154.352 6.192C153.915 6.192 153.563 6.06933 153.296 5.824C153.029 5.568 152.896 5.25867 152.896 4.896C152.896 4.46933 153.045 4.11733 153.344 3.84C153.653 3.552 154.053 3.408 154.544 3.408C154.981 3.408 155.333 3.53067 155.6 3.776C155.877 4.01067 156.016 4.304 156.016 4.656C156.016 5.11467 155.861 5.488 155.552 5.776C155.253 6.05333 154.853 6.192 154.352 6.192ZM160.269 16.128C159.394 16.128 158.631 15.968 157.981 15.648C157.33 15.328 156.823 14.88 156.461 14.304C156.109 13.728 155.933 13.0507 155.933 12.272C155.933 11.312 156.157 10.4587 156.605 9.712C157.053 8.95467 157.666 8.35733 158.445 7.92C159.234 7.48267 160.13 7.264 161.133 7.264C162.018 7.264 162.781 7.424 163.421 7.744C164.071 8.064 164.573 8.512 164.925 9.088C165.287 9.65333 165.469 10.3307 165.469 11.12C165.469 12.0693 165.245 12.9227 164.797 13.68C164.349 14.4373 163.735 15.0347 162.957 15.472C162.178 15.9093 161.282 16.128 160.269 16.128ZM160.429 14.08C160.919 14.08 161.351 13.9627 161.725 13.728C162.109 13.4827 162.407 13.1467 162.621 12.72C162.834 12.2933 162.941 11.7973 162.941 11.232C162.941 10.656 162.77 10.192 162.429 9.84C162.087 9.488 161.607 9.312 160.989 9.312C160.498 9.312 160.061 9.43467 159.677 9.68C159.303 9.91467 159.005 10.2453 158.781 10.672C158.567 11.0987 158.461 11.5947 158.461 12.16C158.461 12.7467 158.631 13.216 158.973 13.568C159.314 13.9093 159.799 14.08 160.429 14.08ZM172.962 7.264C173.698 7.264 174.322 7.41867 174.834 7.728C175.346 8.02667 175.708 8.46933 175.922 9.056C176.135 9.64267 176.156 10.368 175.986 11.232L175.026 16H172.53L173.458 11.392C173.586 10.7627 173.532 10.2773 173.298 9.936C173.074 9.59467 172.658 9.424 172.05 9.424C171.42 9.424 170.892 9.60533 170.466 9.968C170.05 10.3307 169.762 10.8853 169.602 11.632L168.738 16H166.242L167.954 7.392H170.322L169.826 9.824L169.474 9.088C169.89 8.45867 170.402 8 171.01 7.712C171.628 7.41333 172.279 7.264 172.962 7.264ZM181.835 16L183.547 7.392H186.027L184.315 16H181.835ZM185.211 6.192C184.774 6.192 184.422 6.06933 184.155 5.824C183.889 5.568 183.755 5.25867 183.755 4.896C183.755 4.46933 183.905 4.11733 184.203 3.84C184.513 3.552 184.913 3.408 185.403 3.408C185.841 3.408 186.193 3.53067 186.459 3.776C186.737 4.01067 186.875 4.304 186.875 4.656C186.875 5.11467 186.721 5.488 186.411 5.776C186.113 6.05333 185.713 6.192 185.211 6.192ZM193.352 7.264C194.088 7.264 194.712 7.41867 195.224 7.728C195.736 8.02667 196.099 8.46933 196.312 9.056C196.525 9.64267 196.547 10.368 196.376 11.232L195.416 16H192.92L193.848 11.392C193.976 10.7627 193.923 10.2773 193.688 9.936C193.464 9.59467 193.048 9.424 192.44 9.424C191.811 9.424 191.283 9.60533 190.856 9.968C190.44 10.3307 190.152 10.8853 189.992 11.632L189.128 16H186.632L188.344 7.392H190.712L190.216 9.824L189.864 9.088C190.28 8.45867 190.792 8 191.4 7.712C192.019 7.41333 192.669 7.264 193.352 7.264ZM212.306 4.8H214.898L212.658 16H210.066L212.306 4.8ZM204.994 16H202.386L204.626 4.8H207.234L204.994 16ZM211.186 11.408H205.73L206.162 9.216H211.618L211.186 11.408ZM215.308 16L217.548 4.8H222.108C223.505 4.8 224.582 5.104 225.34 5.712C226.108 6.32 226.492 7.17333 226.492 8.272C226.492 9.21067 226.268 10.0267 225.82 10.72C225.382 11.4027 224.753 11.9307 223.932 12.304C223.121 12.6773 222.161 12.864 221.052 12.864H217.404L218.764 11.728L217.916 16H215.308ZM222.508 16L220.22 11.936H222.94L225.244 16H222.508ZM218.7 12.032L217.804 10.8H221.148C222.012 10.8 222.678 10.608 223.148 10.224C223.628 9.82933 223.868 9.25867 223.868 8.512C223.868 7.968 223.681 7.568 223.308 7.312C222.945 7.04533 222.433 6.912 221.772 6.912H218.62L219.98 5.648L218.7 12.032ZM231.605 16L233.845 4.8H236.453L234.213 16H231.605ZM243.415 7.264C244.151 7.264 244.775 7.41867 245.287 7.728C245.799 8.02667 246.161 8.46933 246.375 9.056C246.588 9.64267 246.609 10.368 246.439 11.232L245.479 16H242.983L243.911 11.392C244.039 10.7627 243.985 10.2773 243.751 9.936C243.527 9.59467 243.111 9.424 242.503 9.424C241.873 9.424 241.345 9.60533 240.919 9.968C240.503 10.3307 240.215 10.8853 240.055 11.632L239.191 16H236.695L238.407 7.392H240.775L240.279 9.824L239.927 9.088C240.343 8.45867 240.855 8 241.463 7.712C242.081 7.41333 242.732 7.264 243.415 7.264ZM254.477 7.264C255.213 7.264 255.837 7.41867 256.349 7.728C256.861 8.02667 257.224 8.46933 257.437 9.056C257.65 9.64267 257.672 10.368 257.501 11.232L256.541 16H254.045L254.973 11.392C255.101 10.7627 255.048 10.2773 254.813 9.936C254.589 9.59467 254.173 9.424 253.565 9.424C252.936 9.424 252.408 9.60533 251.981 9.968C251.565 10.3307 251.277 10.8853 251.117 11.632L250.253 16H247.757L249.469 7.392H251.837L251.341 9.824L250.989 9.088C251.405 8.45867 251.917 8 252.525 7.712C253.144 7.41333 253.794 7.264 254.477 7.264ZM263.347 16.128C262.472 16.128 261.71 15.968 261.059 15.648C260.408 15.328 259.902 14.88 259.539 14.304C259.187 13.728 259.011 13.0507 259.011 12.272C259.011 11.312 259.235 10.4587 259.683 9.712C260.131 8.95467 260.744 8.35733 261.523 7.92C262.312 7.48267 263.208 7.264 264.211 7.264C265.096 7.264 265.859 7.424 266.499 7.744C267.15 8.064 267.651 8.512 268.003 9.088C268.366 9.65333 268.547 10.3307 268.547 11.12C268.547 12.0693 268.323 12.9227 267.875 13.68C267.427 14.4373 266.814 15.0347 266.035 15.472C265.256 15.9093 264.36 16.128 263.347 16.128ZM263.507 14.08C263.998 14.08 264.43 13.9627 264.803 13.728C265.187 13.4827 265.486 13.1467 265.699 12.72C265.912 12.2933 266.019 11.7973 266.019 11.232C266.019 10.656 265.848 10.192 265.507 9.84C265.166 9.488 264.686 9.312 264.067 9.312C263.576 9.312 263.139 9.43467 262.755 9.68C262.382 9.91467 262.083 10.2453 261.859 10.672C261.646 11.0987 261.539 11.5947 261.539 12.16C261.539 12.7467 261.71 13.216 262.051 13.568C262.392 13.9093 262.878 14.08 263.507 14.08ZM271.421 16L269.517 7.392H271.981L273.565 14.8H272.285L276.845 7.392H279.341L273.997 16H271.421ZM282.301 16.128C281.64 16.128 281.027 15.9787 280.461 15.68C279.896 15.3707 279.443 14.928 279.101 14.352C278.76 13.776 278.589 13.0827 278.589 12.272C278.589 11.5467 278.707 10.88 278.941 10.272C279.187 9.664 279.528 9.136 279.965 8.688C280.403 8.24 280.909 7.89333 281.485 7.648C282.061 7.392 282.68 7.264 283.341 7.264C284.056 7.264 284.669 7.39733 285.181 7.664C285.693 7.93067 286.072 8.34667 286.317 8.912C286.573 9.46667 286.664 10.1867 286.589 11.072C286.536 12.0853 286.328 12.976 285.965 13.744C285.603 14.5013 285.112 15.088 284.493 15.504C283.885 15.92 283.155 16.128 282.301 16.128ZM283.069 14.064C283.56 14.064 283.992 13.9467 284.365 13.712C284.749 13.4667 285.048 13.136 285.261 12.72C285.485 12.2933 285.597 11.7973 285.597 11.232C285.597 10.6453 285.421 10.1813 285.069 9.84C284.728 9.49867 284.248 9.328 283.629 9.328C283.149 9.328 282.717 9.45067 282.333 9.696C281.949 9.93067 281.645 10.2613 281.421 10.688C281.208 11.104 281.101 11.5947 281.101 12.16C281.101 12.7467 281.272 13.2107 281.613 13.552C281.965 13.8933 282.451 14.064 283.069 14.064ZM284.781 16L285.117 14.288L285.677 11.728L286.013 9.168L286.365 7.392H288.861L287.149 16H284.781ZM292.964 16.128C292.346 16.128 291.818 16.0053 291.38 15.76C290.943 15.504 290.628 15.1413 290.436 14.672C290.255 14.192 290.228 13.6267 290.356 12.976L291.844 5.488H294.34L292.852 12.96C292.788 13.3227 292.826 13.6107 292.964 13.824C293.103 14.0373 293.359 14.144 293.732 14.144C293.903 14.144 294.074 14.1173 294.244 14.064C294.426 14.0107 294.591 13.936 294.74 13.84L295.108 15.616C294.799 15.808 294.458 15.9413 294.084 16.016C293.711 16.0907 293.338 16.128 292.964 16.128ZM289.716 9.504L290.1 7.584H296.068L295.684 9.504H289.716ZM296.413 16L298.125 7.392H300.605L298.893 16H296.413ZM299.789 6.192C299.352 6.192 299 6.06933 298.733 5.824C298.467 5.568 298.333 5.25867 298.333 4.896C298.333 4.46933 298.483 4.11733 298.781 3.84C299.091 3.552 299.491 3.408 299.981 3.408C300.419 3.408 300.771 3.53067 301.037 3.776C301.315 4.01067 301.453 4.304 301.453 4.656C301.453 5.11467 301.299 5.488 300.989 5.776C300.691 6.05333 300.291 6.192 299.789 6.192ZM305.706 16.128C304.832 16.128 304.069 15.968 303.418 15.648C302.768 15.328 302.261 14.88 301.898 14.304C301.546 13.728 301.37 13.0507 301.37 12.272C301.37 11.312 301.594 10.4587 302.042 9.712C302.49 8.95467 303.104 8.35733 303.882 7.92C304.672 7.48267 305.568 7.264 306.57 7.264C307.456 7.264 308.218 7.424 308.858 7.744C309.509 8.064 310.01 8.512 310.362 9.088C310.725 9.65333 310.906 10.3307 310.906 11.12C310.906 12.0693 310.682 12.9227 310.234 13.68C309.786 14.4373 309.173 15.0347 308.394 15.472C307.616 15.9093 306.72 16.128 305.706 16.128ZM305.866 14.08C306.357 14.08 306.789 13.9627 307.162 13.728C307.546 13.4827 307.845 13.1467 308.058 12.72C308.272 12.2933 308.378 11.7973 308.378 11.232C308.378 10.656 308.208 10.192 307.866 9.84C307.525 9.488 307.045 9.312 306.426 9.312C305.936 9.312 305.498 9.43467 305.114 9.68C304.741 9.91467 304.442 10.2453 304.218 10.672C304.005 11.0987 303.898 11.5947 303.898 12.16C303.898 12.7467 304.069 13.216 304.41 13.568C304.752 13.9093 305.237 14.08 305.866 14.08ZM318.399 7.264C319.135 7.264 319.759 7.41867 320.271 7.728C320.783 8.02667 321.146 8.46933 321.359 9.056C321.572 9.64267 321.594 10.368 321.423 11.232L320.463 16H317.967L318.895 11.392C319.023 10.7627 318.97 10.2773 318.735 9.936C318.511 9.59467 318.095 9.424 317.487 9.424C316.858 9.424 316.33 9.60533 315.903 9.968C315.487 10.3307 315.199 10.8853 315.039 11.632L314.175 16H311.679L313.391 7.392H315.759L315.263 9.824L314.911 9.088C315.327 8.45867 315.839 8 316.447 7.712C317.066 7.41333 317.716 7.264 318.399 7.264Z" fill="white"/>
<path d="M200 32C219.242 26.7176 269.727 19.3223 315 32" stroke="#FF26B9" stroke-width="3"/>
</svg>
